<svg width="44" height="44" viewBox="0 0 44 44" fill="none" xmlns="http://www.w3.org/2000/svg">
<rect x="0.5" y="0.5" width="43" height="43" rx="5.31818" fill="white"/>
<rect x="0.5" y="0.5" width="43" height="43" rx="5.31818" stroke="#CFD1FF"/>
<mask id="path-2-inside-1_4269_145932" fill="white">
<path fill-rule="evenodd" clip-rule="evenodd" d="M26.3475 19.9258L26.3475 19.9258C27.297 19.9257 27.7717 19.9257 28.0318 19.728C28.2584 19.5558 28.3978 19.2927 28.4132 19.0085C28.4309 18.6823 28.1645 18.2894 27.6316 17.5035L27.6316 17.5035L26.7764 16.2422C25.9218 14.9818 25.4945 14.3517 25.1137 14.27C24.7848 14.1995 24.4427 14.3045 24.2101 14.5475C23.9407 14.8288 23.9407 15.5901 23.9407 17.1129L23.9407 17.1129L23.9407 17.1129L23.9407 17.9061C23.9402 17.9193 23.9399 17.9324 23.9399 17.9457L23.9399 28.7878C23.9399 29.3234 24.3741 29.7575 24.9096 29.7575C25.4452 29.7575 25.8793 29.3234 25.8793 28.7878L25.8793 19.9258L26.3475 19.9258ZM18.1205 24.0742L17.6523 24.0742C16.7029 24.0742 16.2281 24.0742 15.968 24.2719C15.7415 24.4442 15.602 24.7072 15.5866 24.9914C15.5689 25.3177 15.8353 25.7106 16.3682 26.4964L17.2234 27.7577C18.0781 29.0181 18.5054 29.6483 18.8861 29.7299C19.2151 29.8005 19.5571 29.6954 19.7898 29.4524C20.0476 29.1832 20.0586 28.4738 20.0591 27.0777C20.0596 27.0644 20.0599 27.051 20.0599 27.0376L20.0599 15.2123C20.0599 14.6767 19.6257 14.2426 19.0902 14.2426C18.5547 14.2426 18.1205 14.6767 18.1205 15.2122L18.1205 24.0742Z"/>
</mask>
<path fill-rule="evenodd" clip-rule="evenodd" d="M26.3475 19.9258L26.3475 19.9258C27.297 19.9257 27.7717 19.9257 28.0318 19.728C28.2584 19.5558 28.3978 19.2927 28.4132 19.0085C28.4309 18.6823 28.1645 18.2894 27.6316 17.5035L27.6316 17.5035L26.7764 16.2422C25.9218 14.9818 25.4945 14.3517 25.1137 14.27C24.7848 14.1995 24.4427 14.3045 24.2101 14.5475C23.9407 14.8288 23.9407 15.5901 23.9407 17.1129L23.9407 17.1129L23.9407 17.1129L23.9407 17.9061C23.9402 17.9193 23.9399 17.9324 23.9399 17.9457L23.9399 28.7878C23.9399 29.3234 24.3741 29.7575 24.9096 29.7575C25.4452 29.7575 25.8793 29.3234 25.8793 28.7878L25.8793 19.9258L26.3475 19.9258ZM18.1205 24.0742L17.6523 24.0742C16.7029 24.0742 16.2281 24.0742 15.968 24.2719C15.7415 24.4442 15.602 24.7072 15.5866 24.9914C15.5689 25.3177 15.8353 25.7106 16.3682 26.4964L17.2234 27.7577C18.0781 29.0181 18.5054 29.6483 18.8861 29.7299C19.2151 29.8005 19.5571 29.6954 19.7898 29.4524C20.0476 29.1832 20.0586 28.4738 20.0591 27.0777C20.0596 27.0644 20.0599 27.051 20.0599 27.0376L20.0599 15.2123C20.0599 14.6767 19.6257 14.2426 19.0902 14.2426C18.5547 14.2426 18.1205 14.6767 18.1205 15.2122L18.1205 24.0742Z" fill="#CFD1FF"/>
<path d="M26.3475 19.9258L26.3475 20.8955L26.3475 20.8955L26.3475 19.9258ZM26.3475 19.9258L26.3475 18.9561L26.3475 18.9561L26.3475 19.9258ZM28.0318 19.728L27.445 18.956L27.445 18.9561L28.0318 19.728ZM28.4132 19.0085L29.3815 19.061L28.4132 19.0085ZM27.6316 17.5035L28.4342 16.9593L28.4213 16.9402L28.4074 16.9217L27.6316 17.5035ZM27.6316 17.5035L26.829 18.0477L26.842 18.0668L26.8559 18.0853L27.6316 17.5035ZM26.7764 16.2422L25.9738 16.7864L25.9738 16.7864L26.7764 16.2422ZM25.1137 14.27L25.317 13.3219L25.317 13.3219L25.1137 14.27ZM24.2101 14.5475L24.9104 15.2182L24.9104 15.2182L24.2101 14.5475ZM23.9407 17.1129L22.971 17.1129L22.971 17.1129L23.9407 17.1129ZM23.9407 17.1129L24.9104 17.1129L23.9407 17.1129ZM23.9407 17.9061L24.9097 17.945L24.9104 17.9256L24.9104 17.9061L23.9407 17.9061ZM25.8793 28.7878L26.849 28.7878L25.8793 28.7878ZM25.8793 19.9258L25.8793 18.9561L24.9096 18.9561L24.9096 19.9258L25.8793 19.9258ZM17.6523 24.0742L17.6523 25.0439L17.6523 24.0742ZM18.1205 24.0742L18.1205 25.0439L19.0902 25.0439L19.0902 24.0742L18.1205 24.0742ZM15.968 24.2719L16.5549 25.0439L16.5549 25.0439L15.968 24.2719ZM15.5866 24.9914L16.5549 25.0439L16.5549 25.0439L15.5866 24.9914ZM16.3682 26.4964L15.5656 27.0406L15.5656 27.0406L16.3682 26.4964ZM17.2234 27.7577L18.026 27.2135L18.026 27.2135L17.2234 27.7577ZM18.8861 29.7299L19.0894 28.7818L19.0894 28.7818L18.8861 29.7299ZM19.7898 29.4524L19.0894 28.7818L19.0894 28.7818L19.7898 29.4524ZM20.0591 27.0777L19.0902 27.0383L19.0894 27.0578L19.0894 27.0773L20.0591 27.0777ZM20.0599 27.0376L21.0296 27.0376L20.0599 27.0376ZM20.0599 15.2123L19.0902 15.2123L20.0599 15.2123ZM18.1205 15.2122L17.1508 15.2122L18.1205 15.2122ZM26.3475 18.9561L26.3475 18.9561L26.3475 20.8955L26.3475 20.8955L26.3475 18.9561ZM27.445 18.9561C27.5396 18.8841 27.5853 18.9147 27.3597 18.9354C27.1446 18.9551 26.8415 18.9561 26.3475 18.9561L26.3475 20.8955C26.803 20.8954 27.212 20.8964 27.5366 20.8667C27.8508 20.8379 28.2639 20.7697 28.6187 20.5L27.445 18.9561ZM27.445 18.956H27.445L28.6187 20.5C29.0718 20.1555 29.3507 19.6294 29.3815 19.061L27.445 18.956ZM26.8291 18.0477C27.1063 18.4566 27.2756 18.708 27.38 18.8971C27.4895 19.0954 27.4385 19.0748 27.445 18.9561L29.3815 19.061C29.4056 18.616 29.2303 18.2358 29.0778 17.9596C28.9202 17.6742 28.6898 17.3363 28.4342 16.9593L26.8291 18.0477ZM26.8559 18.0853L26.8559 18.0853L28.4074 16.9217L28.4074 16.9217L26.8559 18.0853ZM25.9738 16.7864L26.829 18.0477L28.4342 16.9593L27.579 15.698L25.9738 16.7864ZM24.9104 15.2182C24.7929 15.193 24.7489 15.143 24.7886 15.1765C24.8268 15.2087 24.8978 15.2799 25.0113 15.4213C25.2419 15.7085 25.5364 16.1413 25.9738 16.7864L27.579 15.698C27.1618 15.0828 26.8153 14.5703 26.5234 14.2069C26.3757 14.023 26.215 13.8425 26.0393 13.6943C25.8652 13.5473 25.625 13.3879 25.317 13.3219L24.9104 15.2182ZM24.9104 15.2182L24.9104 15.2182L25.317 13.3219C24.6591 13.1808 23.9751 13.3908 23.5097 13.8768L24.9104 15.2182ZM24.9104 17.1129C24.9104 16.3334 24.9112 15.81 24.9409 15.4429C24.9556 15.2622 24.9743 15.1634 24.9879 15.1153C25.0019 15.0653 24.9936 15.1313 24.9104 15.2182L23.5097 13.8768C23.2919 14.1043 23.1825 14.371 23.1208 14.5904C23.0586 14.8118 23.0269 15.0513 23.0079 15.2864C22.9703 15.751 22.971 16.3696 22.971 17.1129L24.9104 17.1129ZM24.9104 17.1129L24.9104 17.1129L22.971 17.1129L22.971 17.1129L24.9104 17.1129ZM24.9104 17.1129L24.9104 17.1129L22.971 17.1129L22.971 17.1129L24.9104 17.1129ZM24.9104 17.9061L24.9104 17.1129L22.971 17.1129L22.971 17.9061L24.9104 17.9061ZM24.9096 17.9457L24.9097 17.945L22.9718 17.8673C22.9708 17.8933 22.9702 17.9195 22.9702 17.9457L24.9096 17.9457ZM24.9096 28.7878L24.9096 17.9457L22.9702 17.9457L22.9702 28.7878L24.9096 28.7878ZM24.9096 28.7878L22.9702 28.7878C22.9702 29.8589 23.8385 30.7272 24.9096 30.7272L24.9096 28.7878ZM24.9096 28.7878L24.9096 28.7878L24.9096 30.7272C25.9807 30.7272 26.849 29.8589 26.849 28.7878L24.9096 28.7878ZM24.9096 19.9258L24.9096 28.7878L26.849 28.7878L26.849 19.9258L24.9096 19.9258ZM26.3475 18.9561L25.8793 18.9561L25.8793 20.8955L26.3475 20.8955L26.3475 18.9561ZM17.6523 25.0439L18.1205 25.0439L18.1205 23.1045L17.6523 23.1045L17.6523 25.0439ZM16.5549 25.0439C16.4602 25.1159 16.4146 25.0852 16.6401 25.0646C16.8552 25.0449 17.1583 25.0439 17.6523 25.0439L17.6523 23.1045C17.1969 23.1045 16.7879 23.1035 16.4632 23.1333C16.149 23.162 15.736 23.2303 15.3812 23.5L16.5549 25.0439ZM16.5549 25.0439L16.5549 25.0439L15.3812 23.5C14.9281 23.8444 14.6491 24.3706 14.6183 24.9389L16.5549 25.0439ZM17.1708 25.9522C16.8935 25.5434 16.7242 25.2919 16.6198 25.1028C16.5103 24.9046 16.5613 24.9251 16.5549 25.0439L14.6183 24.9389C14.5942 25.3839 14.7695 25.7641 14.9221 26.0403C15.0797 26.3257 15.31 26.6637 15.5656 27.0406L17.1708 25.9522ZM18.026 27.2135L17.1708 25.9522L15.5656 27.0406L16.4209 28.3019L18.026 27.2135ZM19.0894 28.7818C19.2069 28.807 19.251 28.857 19.2112 28.8235C19.173 28.7912 19.1021 28.72 18.9885 28.5787C18.7579 28.2915 18.4635 27.8587 18.026 27.2135L16.4209 28.3019C16.838 28.9172 17.1846 29.4296 17.4764 29.7931C17.6241 29.977 17.7848 30.1574 17.9605 30.3057C18.1347 30.4527 18.3749 30.6121 18.6828 30.6781L19.0894 28.7818ZM19.0894 28.7818L19.0894 28.7818L18.6828 30.6781C19.3407 30.8192 20.0248 30.6091 20.4902 30.1231L19.0894 28.7818ZM19.0894 27.0773C19.0891 27.7902 19.0854 28.2675 19.0552 28.5999C19.0404 28.7632 19.0223 28.8499 19.0106 28.8893C18.9987 28.9296 19.0094 28.8653 19.0894 28.7818L20.4902 30.1231C20.8766 29.7196 20.9525 29.1516 20.9867 28.7754C21.0265 28.3368 21.0285 27.7613 21.0288 27.078L19.0894 27.0773ZM19.0902 27.0376L19.0902 27.0383L21.028 27.117C21.0291 27.0906 21.0296 27.0642 21.0296 27.0376L19.0902 27.0376ZM19.0902 15.2123L19.0902 27.0376L21.0296 27.0376L21.0296 15.2123L19.0902 15.2123ZM19.0902 15.2123L19.0902 15.2123L21.0296 15.2123C21.0296 14.1412 20.1613 13.2729 19.0902 13.2729L19.0902 15.2123ZM19.0902 15.2122L19.0902 15.2123L19.0902 13.2729C18.0191 13.2729 17.1508 14.1411 17.1508 15.2122L19.0902 15.2122ZM19.0902 24.0742L19.0902 15.2122L17.1508 15.2122L17.1508 24.0742L19.0902 24.0742Z" fill="#CFD1FF" mask="url(#path-2-inside-1_4269_145932)"/>
</svg>


