<svg width="24" height="24" viewBox="0 0 24 24" fill="none" xmlns="http://www.w3.org/2000/svg">
<g id="Group">
<path id="Vector" d="M12 24C18.6274 24 24 18.6274 24 12C24 5.37258 18.6274 0 12 0C5.37258 0 0 5.37258 0 12C0 18.6274 5.37258 24 12 24Z" fill="#627EEA"/>
<g id="Group 22070">
<path id="Vector_2" d="M11.9453 3V9.6525L17.5681 12.165L11.9453 3Z" fill="white" fill-opacity="0.602"/>
<path id="Vector_3" d="M11.9516 3L6.32812 12.165L11.9516 9.6525V3Z" fill="white"/>
<path id="Vector_4" d="M11.9453 16.476V20.9963L17.5718 13.212L11.9453 16.476Z" fill="white" fill-opacity="0.602"/>
<path id="Vector_5" d="M11.9516 20.9963V16.4753L6.32812 13.212L11.9516 20.9963Z" fill="white"/>
<path id="Vector_6" d="M11.9453 15.4299L17.5681 12.1652L11.9453 9.65417V15.4299Z" fill="white" fill-opacity="0.2"/>
<path id="Vector_7" d="M6.32812 12.1652L11.9516 15.4299V9.65417L6.32812 12.1652Z" fill="white" fill-opacity="0.602"/>
</g>
</g>
</svg>
