<svg
              width="16"
              height="17"
              viewBox="0 0 16 17"
              fill="none"
              xmlns="http://www.w3.org/2000/svg"
            >
              <path
                d="M11.6693 15.6667H2.33594C2.0626 15.6667 1.83594 15.44 1.83594 15.1667V3.83337C1.83594 2.34004 2.8426 1.33337 4.33594 1.33337H9.66927C11.1626 1.33337 12.1693 2.34004 12.1693 3.83337V15.1667C12.1693 15.44 11.9426 15.6667 11.6693 15.6667ZM2.83594 14.6667H11.1693V3.83337C11.1693 2.89337 10.6093 2.33337 9.66927 2.33337H4.33594C3.39594 2.33337 2.83594 2.89337 2.83594 3.83337V14.6667Z"
                fill="#98A2B3"
              />
              <path
                d="M12.6693 15.6666H1.33594C1.0626 15.6666 0.835938 15.44 0.835938 15.1666C0.835938 14.8933 1.0626 14.6666 1.33594 14.6666H12.6693C12.9426 14.6666 13.1693 14.8933 13.1693 15.1666C13.1693 15.44 12.9426 15.6666 12.6693 15.6666Z"
                fill="#98A2B3"
              />
              <path
                d="M8.40812 7.66678H5.58812C4.50146 7.66678 3.82812 6.99345 3.82812 5.90678V5.08678C3.82812 4.00012 4.50146 3.32678 5.58812 3.32678H8.40812C9.49479 3.32678 10.1681 4.00012 10.1681 5.08678V5.90678C10.1681 6.99345 9.49479 7.66678 8.40812 7.66678ZM5.59479 4.33345C5.05479 4.33345 4.83479 4.55344 4.83479 5.09344V5.91344C4.83479 6.45344 5.05479 6.67344 5.59479 6.67344H8.41479C8.95479 6.67344 9.17479 6.45344 9.17479 5.91344V5.09344C9.17479 4.55344 8.95479 4.33345 8.41479 4.33345H5.59479Z"
                fill="#98A2B3"
              />
              <path
                d="M6.33594 9.66663H4.33594C4.0626 9.66663 3.83594 9.43996 3.83594 9.16663C3.83594 8.89329 4.0626 8.66663 4.33594 8.66663H6.33594C6.60927 8.66663 6.83594 8.89329 6.83594 9.16663C6.83594 9.43996 6.60927 9.66663 6.33594 9.66663Z"
                fill="#98A2B3"
              />
              <path
                d="M11.6641 11.6734C11.3907 11.6734 11.1641 11.4534 11.1641 11.1734C11.1641 10.9001 11.3841 10.6734 11.6641 10.6734L14.1641 10.6668V7.47345L13.1041 6.94678C12.8574 6.82011 12.7574 6.52012 12.8774 6.27345C13.0041 6.02678 13.3041 5.92678 13.5507 6.04678L14.8841 6.71345C15.0507 6.80012 15.1574 6.97345 15.1574 7.16012V11.1601C15.1574 11.4335 14.9374 11.6601 14.6574 11.6601L11.6641 11.6734Z"
                fill="#98A2B3"
              />
</svg>
