<svg
          width="44"
          height="44"
          cursor="pointer"
          viewBox="0 0 44 44"
          fill="none"
          xmlns="http://www.w3.org/2000/svg"
        >
          <rect width="44" height="44" rx="5.81818" fill="#F9FAFB" />
          <path
            d="M14.7484 25.58C14.7484 25.17 15.0884 24.83 15.4984 24.83L19.3984 24.83C19.8084 24.83 20.1484 25.17 20.1484 25.58C20.1484 25.99 19.8084 26.33 19.3984 26.33L15.4984 26.33C15.0884 26.33 14.7484 25.99 14.7484 25.58Z"
            fill="#344054"
          />
          <path
            d="M25.8 25.58C25.8 25.17 26.14 24.83 26.55 24.83L28.5 24.83C28.91 24.83 29.25 25.17 29.25 25.58C29.25 25.99 28.91 26.33 28.5 26.33L26.55 26.33C26.14 26.33 25.8 25.99 25.8 25.58Z"
            fill="#344054"
          />
          <path
            d="M20.5969 25.5805C20.5969 23.7305 22.0969 22.2305 23.9469 22.2305C25.7969 22.2305 27.2969 23.7305 27.2969 25.5805C27.2969 27.4305 25.7969 28.9305 23.9469 28.9305C22.0969 28.9305 20.5969 27.4205 20.5969 25.5805ZM25.7969 25.5805C25.7969 24.5605 24.9669 23.7305 23.9469 23.7305C22.9269 23.7305 22.0969 24.5605 22.0969 25.5805C22.0969 26.6005 22.9269 27.4305 23.9469 27.4305C24.9669 27.4305 25.7969 26.5905 25.7969 25.5805Z"
            fill="#344054"
          />
          <path
            d="M14.7531 18.42C14.7531 18.01 15.0931 17.67 15.5031 17.67L17.4531 17.67C17.8631 17.67 18.2031 18.01 18.2031 18.42C18.2031 18.83 17.8631 19.17 17.4531 19.17L15.5031 19.17C15.0931 19.17 14.7531 18.84 14.7531 18.42Z"
            fill="#344054"
          />
          <path
            d="M23.85 18.42C23.85 18.01 24.19 17.67 24.6 17.67L28.5 17.67C28.91 17.67 29.25 18.01 29.25 18.42C29.25 18.83 28.91 19.17 28.5 19.17L24.6 19.17C24.19 19.17 23.85 18.84 23.85 18.42Z"
            fill="#344054"
          />
          <path
            d="M16.6984 18.4203C16.6984 16.5703 18.1984 15.0703 20.0484 15.0703C21.8984 15.0703 23.3984 16.5703 23.3984 18.4203C23.3984 20.2703 21.8984 21.7703 20.0484 21.7703C18.1984 21.7703 16.6984 20.2703 16.6984 18.4203ZM21.8984 18.4203C21.8984 17.4003 21.0684 16.5703 20.0484 16.5703C19.0284 16.5703 18.1984 17.4003 18.1984 18.4203C18.1984 19.4403 19.0284 20.2703 20.0484 20.2703C21.0684 20.2703 21.8984 19.4503 21.8984 18.4203Z"
            fill="#344054"
          />
        </svg>