 <svg
          width="44"
          height="44"
          viewBox="0 0 44 44"
          fill="none"
          xmlns="http://www.w3.org/2000/svg"
        >
          <rect
            x="0.5"
            y="0.5"
            width="43"
            height="43"
            rx="5.31818"
            fill="white"
          />
          <rect
            x="0.5"
            y="0.5"
            width="43"
            height="43"
            rx="5.31818"
            stroke="#6870FA"
          />
          <path
            d="M20.9795 16.19L17.2695 12.48C17.1995 12.41 17.1095 12.35 17.0095 12.31C16.9995 12.31 16.9895 12.31 16.9795 12.3C16.8995 12.27 16.8195 12.25 16.7295 12.25C16.5295 12.25 16.3395 12.33 16.1995 12.47L12.4695 16.19C12.1795 16.48 12.1795 16.96 12.4695 17.25C12.7595 17.54 13.2395 17.54 13.5295 17.25L15.9795 14.8V31C15.9795 31.41 16.3195 31.75 16.7295 31.75C17.1395 31.75 17.4795 31.41 17.4795 31V14.81L19.9195 17.25C20.0695 17.4 20.2595 17.47 20.4495 17.47C20.6395 17.47 20.8295 17.4 20.9795 17.25C21.2695 16.96 21.2695 16.49 20.9795 16.19Z"
            fill="#6870FA"
          />
          <path
            d="M31.53 26.75C31.24 26.46 30.76 26.46 30.47 26.75L28.02 29.2V13C28.02 12.59 27.68 12.25 27.27 12.25C26.86 12.25 26.52 12.59 26.52 13V29.19L24.08 26.75C23.79 26.46 23.31 26.46 23.02 26.75C22.73 27.04 22.73 27.52 23.02 27.81L26.73 31.52C26.8 31.59 26.89 31.65 26.99 31.69C27 31.69 27.01 31.69 27.02 31.7C27.1 31.73 27.19 31.75 27.28 31.75C27.48 31.75 27.67 31.67 27.81 31.53L31.53 27.81C31.82 27.51 31.82 27.04 31.53 26.75Z"
            fill="#6870FA"
          />
        </svg>